<?xml version="1.0" encoding="UTF-8" standalone="no"?>
<svg
   width="1254"
   height="1254"
   viewBox="0 0 1254 1254"
   version="1.1"
   id="svg55"
   xmlns="http://www.w3.org/2000/svg"
   xmlns:svg="http://www.w3.org/2000/svg">
  <defs
     id="defs55" />
  <path
     fill="#08111D"
     d="M0 0L196.766 0L1060.8 0L1254 0L1254 188.263L1254 1070.71L1254 1254L1066.56 1254L187.584 1254L0 1254L0 1068.34L0 194.437L0 0Z"
     id="path1" />
  <path
     d="M0 0L196.766 0C190.567 1.78091 182.351 1.96891 175.823 2.66048C167.46 3.60775 159.168 5.10143 151.001 7.13194C99.7058 19.9383 54.8985 56.3614 28.2272 101.573C16.2536 122.214 7.95578 144.778 3.70355 168.258C2.57058 174.74 1.55501 189.457 0 194.437L0 0Z"
     id="path2" />
  <path
     d="M1060.8 0L1254 0L1254 188.263C1251.72 183.053 1251.23 170.344 1249.9 163.686C1244.72 137.576 1234.66 112.677 1220.25 90.298C1192.78 48.1821 1150.33 18.0848 1101.49 6.10481C1087.62 2.815 1073.86 2.98982 1060.8 0Z"
     id="path3" />
  <path
     d="M0 1068.34C1.8777 1075.43 2.02366 1083.24 3.08326 1090.51C3.9193 1096.25 5.04309 1101.67 6.42313 1107.3C17.9899 1156.47 48.8966 1198.9 92.1504 1224.98C112.619 1237.43 136.004 1246.13 159.642 1250.18C168.085 1251.62 179.758 1251.97 187.584 1254L0 1254L0 1068.34Z"
     id="path4" />
  <path
     d="M1254 1070.71L1254 1254L1066.56 1254C1074.71 1251.51 1086.01 1251.67 1094.73 1250.33C1170.56 1238.69 1228.23 1184.35 1247.19 1110.52C1248.85 1104.24 1250.06 1097.85 1250.84 1091.4C1251.63 1085.03 1252.1 1076.6 1254 1070.71Z"
     id="path5" />
  <path
     fill="#CDC9C7"
     d="M598.348 268.426C621.172 266.529 636.402 270.579 641.208 295.869C627.25 286.812 612.151 291.861 601.936 303.95C585.222 323.731 581.251 355.463 582.72 380.339C586.288 440.761 620.662 467.703 663.071 503.841L727.436 558.465C715.052 558.533 702.238 558.03 689.872 558.384C683.604 558.564 680.688 560.792 676.961 565.239C672.818 560.663 670.197 558.482 665.378 554.42C665.501 547.242 667.27 528.357 661.834 523.488C660.277 522.101 658.381 521.15 656.338 520.731C652.114 519.892 638.672 520.173 633.57 520.176C619.526 520.091 605.481 520.191 591.44 520.475L570.537 503.068C569.773 449.56 578.639 455.139 523.953 454.46C531.835 417.04 546.201 380.801 562.803 346.44C564.497 342.933 566.144 339.627 567.45 335.947C543.405 370.929 526.573 413.678 515.701 454.546C509.35 454.561 492.769 453.8 487.486 455.451C475.259 459.271 478.743 487.699 475.026 499.44C471.635 510.151 469.564 516.001 464.536 526.204C464.676 517.034 467.009 499.989 453.808 498.596C441.197 497.264 427.001 497.929 414.157 497.914C454.483 427.918 499.971 376.002 561.814 324.224C545.776 333.235 518.731 355.802 505.439 368.406C498.828 373.951 488.598 384.791 482.706 391.148C452.695 423.423 426.843 459.327 405.75 498.023C402.955 498.025 398.538 498.156 396.047 497.948C366.031 495.438 376.942 521.156 374.579 539.385C373.869 544.859 367.539 558.568 365.183 565.169C359.053 582.339 353.936 598.316 350.423 616.364C352.9 611.298 355.778 603.293 358.049 597.858C363.323 584.996 368.969 572.289 374.98 559.754C374.536 582.908 375.221 606.876 375.079 630.162C362.841 641.833 357.14 650.968 351.462 666.704C346.224 635.379 325.807 607.086 290.966 611.458C249.886 616.612 215.007 650.851 189.2 681.054C182.229 689.212 176.885 698.264 170.275 706.262L169.937 706.666C171.189 689.991 173.591 673.422 177.126 657.078C193.259 585.404 234.314 508.668 279.496 451.466C341.042 373.547 422.33 319.309 516.354 288.592C541.715 280.306 571.652 271.356 598.348 268.426Z"
     id="path6" />
  <path
     fill="#08111D"
     d="M182.47 669.795C191.663 625.8 208.377 583.721 231.876 545.408C287.374 453.144 369.882 380.162 468.23 336.341C484.226 329.396 506.731 320.59 523.723 316.334C522.306 317.51 521.03 318.214 520.64 319.925C522.029 321.302 521.201 320.818 523.332 321.179C521.114 322.08 518.901 322.993 516.693 323.917C364.952 387.526 244.327 518.489 182.47 669.795Z"
     id="path7" />
  <path
     d="M523.723 316.334C531.823 313.372 550.981 309 559.558 307.483C546.734 311.981 535.945 315.987 523.332 321.179C521.201 320.818 522.029 321.302 520.64 319.925C521.03 318.214 522.306 317.51 523.723 316.334Z"
     id="path8" />
  <path
     fill="#CDC9C7"
     d="M276.343 652.969C290.615 651.596 307.848 656.006 321.332 660.412C335.821 679.394 350.762 691.854 372.916 700.82C372.623 726.89 372.87 753.504 372.839 779.618C358.436 779.668 357.208 779.411 345.209 770.806C331.89 761.254 316.363 753.368 299.773 751.893C244.211 746.954 218.42 809.136 215.156 855.107C211.796 903.851 231.754 948.059 262.716 984.403C299.829 1027.97 353.56 1056.38 410.626 1061.51C436.665 1063.19 469.803 1059.88 490.093 1041.97C515.584 1019.46 510.029 985.1 489.244 961.653C489.243 963.088 489.201 964.522 489.12 965.955C488.153 985.539 482.93 995.972 468.557 1009.02C468.94 1007.59 469.288 1006.15 469.601 1004.7C473.801 985.406 470.087 965.23 459.29 948.693C447.078 930.152 430.969 922.019 409.877 917.608C441.258 903.438 470.494 904.094 501.543 919.416C530.567 933.738 547.535 954.257 557.688 984.418C545.262 971.678 536.968 965.3 520.26 959.206C538.531 984.469 545.978 1006.99 535.373 1037.39C525.154 1063.37 504.894 1082.22 479.444 1092.95C435.211 1111.6 389.271 1103.33 346.476 1086.44C365.495 1101.68 384.192 1108.92 407.615 1113.99C389.951 1115.58 372.145 1114.09 354.99 1109.59C288.704 1092.85 238.14 1049.68 203.762 991.669C205.305 1009.69 206.987 1016.92 212.044 1034.15C186.762 1007.98 169.077 967.849 160.639 932.706C157.845 921.073 156.482 910.319 154.545 898.621C148.617 919.361 146.113 932.014 146.706 954.187C145.285 951.134 143.957 948.039 142.724 944.905C128.65 908.089 129.809 862.51 141.137 825.111C145.445 810.89 150.268 799.483 156.369 785.946C140.41 802.297 134.646 811.512 123.869 830.956C126.975 769.58 162.315 730.784 214.322 702.983C199.553 702.805 194.821 703.38 180.472 706.1C216.352 677.631 250.305 673.085 294.157 675.551C277.332 663.737 267.687 660.411 247.69 657.81C258.899 655.007 264.865 653.763 276.343 652.969Z"
     id="path9" />
  <path
     fill="#CDC9C7"
     d="M921.818 285.594C969.572 302.514 1007.41 333.322 1029.68 379.614C1046.44 414.44 1055.62 452.375 1054.96 491.128C1054.68 505.926 1053.3 520.683 1050.84 535.278C1046.35 562.148 1034.19 596.345 1047.29 622.096C1054.74 636.758 1068.1 648.23 1080.63 658.471C1110.72 682.798 1142.46 721.318 1127.89 762.502C1120.36 784.054 1105.23 781.373 1086.5 780.81C1070.87 780.339 1055.06 775.452 1040.33 770.472C1039.82 765.479 1039.38 761.29 1038.48 756.367C1035.42 767.47 1033.38 774.981 1024.81 782.993C1024.42 780.532 1024.03 777.618 1023.4 775.248C1021.32 781.382 1019.76 786.192 1016.58 791.853C1004.19 795.339 1002.28 812.191 1002.11 823.229C993.978 814.95 989.364 806.03 989.508 794.135C989.66 784.811 992.715 775.765 998.248 768.259C997.169 767.759 995.555 767.261 994.392 766.856C987.994 773.08 984.609 778.495 983.01 787.512C971.982 796.806 969.368 808.296 969.153 822.138C949.746 801.562 950.786 776.528 970.284 756.414C956.61 762.319 952.562 767.771 949.306 782.281C939.005 789.736 937.159 796.493 935.664 808.404C920.776 789.138 921.802 766.785 940.861 749.818C947.037 744.32 955.005 742.99 963.076 742.738C979.369 729.662 997.005 735.925 1013.1 745.364C1001.98 733.186 996.033 729.113 979.244 729.244C987.18 720.085 994.509 713.613 1007.58 712.613C1026.11 711.194 1039.45 725.393 1057.63 729.078C1068.99 731.381 1074.57 730.896 1086.05 730.216C1077.59 727.294 1067.35 723.531 1059.63 719.101C1036.86 706.035 1017.1 691.21 989.927 703.887C978.788 709.083 968.352 720.027 962.489 730.918C948.479 732.825 942.237 735.113 932.398 745.532C900.969 690.404 930.107 638.999 954.935 589.097C988.554 521.528 986.972 431.727 918.022 386.483C923.134 392.048 927.719 397.282 932.321 403.297C929.791 408.54 927.568 411.608 924.013 416.262L917.085 418.153C908.937 401.241 899.583 389.327 883.994 378.86C908.148 367.858 921.612 357.73 935.787 334.609C915.594 334.735 903.98 333.569 884.259 329.05C902.831 316.957 912.312 305.792 921.818 285.594Z"
     id="path10" />
  <path
     d="M994.392 766.856C998.175 764.193 999.772 763.576 1003.99 761.728L998.248 768.259C997.169 767.759 995.555 767.261 994.392 766.856Z"
     id="path11" />
  <path
     fill="#CDC9C7"
     d="M384.163 790.803C411.992 790.224 441.127 790.625 469.017 790.636L608.668 790.59L708.131 790.567C725.143 790.566 746.102 790.041 762.864 790.803C764.81 800.5 767.632 805.417 774.118 812.614C770.461 812.886 758.4 812.793 756.324 813.782C757.022 814.383 771.562 815.123 774.068 815.558C779.689 816.532 780.205 816.964 784.963 820.002C785.346 808.418 785.91 803.482 792.465 793.611C796.2 810.752 801.205 818.746 817.343 826.097C817.337 813.518 818.762 807.384 825.684 796.91C829.101 812.611 835.159 820.541 850.648 826.287C850.895 815.285 851.671 810.288 856.594 800.683C862.304 797.277 863.704 796.139 867.701 791.044L918.799 791.058C921.516 804.617 929.203 812.04 939.99 819.563C940.418 808.243 940.584 804.051 947.434 794.581C948.939 812.121 958.45 824.376 974.513 831.047C974.284 820.219 974.595 809.972 982.091 801.377C984.329 813.672 990.416 817.079 992.62 825.225C996.466 825.416 1001.22 829.591 1007.14 831.507C1007.41 818.225 1008.54 812.407 1015.41 801.246C1022.79 798.981 1023.91 797.409 1027.51 790.973C1062.73 791.739 1099.25 790.207 1134.38 791.281C1134.09 797.818 1133.99 806.339 1125.83 807.236C1107.72 809.225 1088.96 808.949 1070.77 810.322C1074.66 812.859 1122.95 812.583 1128.38 814.772C1136.01 838.094 1095.68 836 1081.82 837.095C1092.96 838.697 1103.47 839.461 1114.59 840.699C1115.58 840.809 1115.22 840.685 1115.88 841.604C1112.7 856.114 1084.15 854.83 1072.91 854.749C1064.36 854.687 1055.74 854.707 1047.19 854.719L948.154 854.727L506.588 854.679L395.714 854.699C371.389 854.695 340.94 853.235 317.715 857.664C297.902 861.443 275.983 874.413 265.348 891.895C251.44 914.758 252.097 934.156 257.656 959.017C234.644 926.308 225.942 894.968 229.762 855.083C237.503 854.273 259.936 851.788 266.579 850.067C254.594 849.158 242.593 848.48 230.581 848.033C231.068 844.028 231.425 839.282 234.079 836.046C242.906 825.286 313.444 830.667 329.327 830.202C348.193 829.65 367.304 827.953 386.062 825.837C366.894 824.31 340.369 823.144 321.403 823.717C291.332 824.625 266.68 827.973 236.43 825.85C241.094 810.071 248.22 812.883 262.748 811.247C267.84 810.673 272.603 810.364 277.676 809.506C267.064 808.232 256.463 806.859 245.876 805.389C255.697 790.323 268.767 791.111 284.828 791.046C292.188 791.016 299.652 791.004 307.024 790.996L384.163 790.803Z"
     id="path12" />
  <path
     fill="#08111D"
     d="M728.786 833.486C726.709 834.124 718.472 834.441 715.737 834.618C691.443 836.191 667.587 834.719 643.373 832.863C640.086 832.611 629.503 832.551 627.236 831.418C629.165 830.633 668.888 829.234 673.882 829.075C689.005 828.594 714.437 827.758 729.112 830.095C730.324 831.458 730.216 830.794 730.26 832.134L730.633 832.329C729.136 832.909 729.542 832.433 728.786 833.486Z"
     id="path13" />
  <path
     fill="#08111D"
     d="M552.732 811.582C571.856 811.065 587.981 812.619 607.108 814.26C590.971 816.374 574.721 817.507 558.447 817.653C546.474 817.498 516.443 816.084 505.048 814.016C520.937 813.094 536.832 812.282 552.732 811.582Z"
     id="path14" />
  <path
     fill="#08111D"
     d="M445.707 833.61C453.82 832.703 483.515 835.098 492.008 836.267C483.354 837.568 465.151 838.564 456.32 838.931C446.479 839.519 418.779 837.782 409.205 836.097C420.073 834.723 434.631 834.245 445.707 833.61Z"
     id="path15" />
  <path
     fill="#08111D"
     d="M887.661 823.9C896.632 823.145 917.998 823.65 927.31 825.259C924.27 826.327 915.092 826.692 911.565 826.873C901.221 827.811 881.216 826.899 870.723 825.063C876.269 824.517 882.081 824.244 887.661 823.9Z"
     id="path16" />
  <path
     d="M1027.08 824.408C1035.99 823.787 1046.58 823.945 1055.46 825.157C1052.82 825.946 1050.26 825.981 1047.5 826.187C1037.25 827.17 1027.26 826.333 1017.07 825.329C1020.04 824.877 1024.02 824.664 1027.08 824.408Z"
     id="path17" />
  <path
     d="M729.112 830.095C737.275 830.479 745.434 830.923 753.59 831.427C749.614 832.488 733.457 833.413 728.786 833.486C729.542 832.433 729.136 832.909 730.633 832.329L730.26 832.134C730.216 830.794 730.324 831.458 729.112 830.095Z"
     id="path18" />
  <path
     fill="#CDC9C7"
     d="M979.896 118.582C982.729 127.041 976.708 151.537 973.256 159.843C971.409 164.286 964.286 179.848 960.457 182.031L958.314 179.331C957.3 180.368 957.568 184.348 957.495 186.274C954.671 190.3 951.604 193.149 948.144 196.596C947.4 194.502 946.782 192.285 945.002 191.274C945.107 195.065 945.845 194.52 945.006 198.614C941.979 203.067 930.076 210.756 925.462 213.739C924.881 210.858 923.737 207.173 922.928 204.276C922.798 208.151 922.316 211.771 921.859 215.616C911.943 221.675 899.977 226.626 889.61 232.704C887.55 230.172 885.577 228.374 883.237 226.126C884.362 228.781 885.368 231.658 886.371 234.375C872.293 242.497 864.317 249.729 854.672 262.481C851.926 259.589 848.519 256.91 845.426 254.33C847.894 257.985 850.222 261.732 852.404 265.565C848.855 270.752 845.81 276.841 843.012 282.5C833.864 285.845 831.022 288.938 824.153 295.633C843.619 286.91 855.661 286.522 875.78 282.789C891.231 279.923 906.925 273.184 920.422 265.2C916.979 274.717 909.643 287.219 903.45 294.983C887.671 315.023 864.593 327.995 839.271 331.058C864.811 339.429 896.079 343.101 922.742 340.312C899.156 364.194 861.178 375.978 828.225 376.718C840.744 383.604 866.303 399.125 877.022 408.539C852.317 413.478 832.328 407.788 808.011 405.822C820.923 414.818 827.906 422.088 832.554 437.063C801.072 421.345 771.719 420.106 739.785 435.975C727.216 442.887 710.109 451.469 702.314 463.788C700.54 466.591 706.088 474.047 706.774 476.201L705.306 476.88C694.286 477.101 688.585 475.337 679.338 469.52L682.994 477.191L682.002 477.085C673.941 476.206 650.323 471.508 650.276 459.245C650.266 456.665 656.723 457.178 659.573 456.715C666.088 455.678 672.41 453.67 678.328 450.757C690.674 444.769 698.602 436.408 709.258 428.172C716.416 422.639 723.96 417.814 731.585 412.956C713.899 410.709 698.691 414.804 686.962 428.534C673.281 444.547 660.748 438.087 646.263 449.363C641.086 453.394 640.311 461.998 640.375 468.396C632.347 464.235 626.179 460.274 620.23 453.232C611.412 442.661 607.217 428.988 608.589 415.291C609.691 403.975 611.988 395.922 620.997 388.529C640.17 387.832 664.235 373.167 670.203 354.466C668.727 347.64 666.243 339.716 668.118 332.988C670.462 324.576 678.122 318.896 684.114 312.758C701.016 295.445 707.265 271.362 707.956 247.746C716.49 261.872 718.25 274.926 717.6 291C738.311 269.26 755.819 260.874 784.811 254.304C780.426 262.597 778.54 266.484 776.377 275.448C787.618 263.181 799.084 251.773 812.245 241.574C818.636 241.037 824.873 241.165 831.277 241.195C825.749 238.998 822.949 237.926 817.137 237.089C824.385 229.804 832.679 223.755 841.501 218.554C851.851 212.453 856.115 210.797 868.043 212.255L862.106 209.021C875.859 203.067 890.73 198.097 904.667 192.407C906.04 191.846 909.83 193.241 912.229 192.679C911.569 191.801 911.412 191.646 910.591 190.832L909.872 190.133C911.247 188.869 920.243 184.818 922.39 183.697C951.137 168.687 966.847 147.255 979.896 118.582Z"
     id="path19" />
  <path
     fill="#08111D"
     d="M770.81 319.702C769.32 326.706 757.985 332.802 751.795 335.46C740.481 373.993 725.286 357.155 702.334 369.863C701.813 366.312 704.082 359.397 705.147 356.098C713.213 331.115 733.533 330.422 755.236 326.028C760.146 325.034 766.258 322.045 770.81 319.702Z"
     id="path20" />
  <path
     fill="#CDC9C7"
     d="M731.661 340.543C731.805 340.71 732.149 341.706 732.245 341.956C730.385 356.894 730.317 358.082 715.178 359.587L714.687 359.142C713.926 356.77 715.715 351.944 716.872 349.785C720.038 343.875 725.771 342.421 731.661 340.543Z"
     id="path21" />
  <path
     fill="#08111D"
     d="M642.941 402.972L643.311 403.28C643.516 405.135 640.487 413.314 639.699 415.654C632.183 419.697 631.542 420.887 627.599 428.357C622.211 413.542 630.157 407.038 642.941 402.972Z"
     id="path22" />
  <path
     fill="#11695F"
     d="M481.973 518.502C494.942 518.298 509.437 519.958 522.934 519.824C536.741 519.686 550.912 518.375 564.42 518.521L563.602 728.849C543.734 728.486 523.955 726.625 504.015 727.608C496.262 727.991 488.335 728.368 480.581 728.423L481.973 518.502Z"
     id="path23" />
  <path
     fill="#11695F"
     d="M456.846 564.814C457.181 565.124 457.516 565.434 457.851 565.743C457.554 596.622 457.157 705.137 456.986 728.562C432.2 727 407.348 726.771 382.538 727.878L381.321 727.677C380.132 725.531 380.766 676.388 380.77 669.343L380.918 565.093C408.525 565.573 428.947 566.23 456.846 564.814Z"
     id="path24" />
  <path
     fill="#11695F"
     d="M650.116 582.04C652.938 581.845 656.053 581.785 658.905 581.669L658.212 731.196C654.96 731.236 651.602 731.132 648.356 730.927C630.988 729.831 613.832 730.19 596.442 730.495L587.801 730.498C587.366 713.202 587.674 694.857 587.683 677.456L587.786 582.052C609.772 582.926 628.209 583.185 650.116 582.04Z"
     id="path25" />
  <path
     fill="#11695F"
     d="M680.214 616.547L748.408 616.485L748.234 733.449C740.743 732.963 733.233 732.78 725.772 732.307C710.392 731.33 695.414 732.798 680.052 732.934C680.894 694.989 679.986 654.812 680.214 616.547Z"
     id="path26" />
  <path
     fill="#CDC9C7"
     d="M836.39 646.272C836.291 659.016 837.732 666.647 841.961 678.804C869.456 684.737 886.301 682.505 912.075 672.117C906.983 701.575 908.878 727.607 925.152 753.722C919.363 763.159 917.647 767.83 916.658 778.928C907.65 777.216 900.805 774.896 892.143 771.811C890.938 767.88 887.518 761.297 887.49 759.025L888.319 757.963L892.213 757.489C889.625 757.284 888.573 757.247 886.098 756.596C876.634 745.968 872.755 738.583 855.857 737.541L855.333 737.513C849.587 730.297 843.632 725.467 833.961 724.417C832.641 724.279 831.319 724.168 829.995 724.085C824.218 717.328 820.075 711.499 819.446 702.189C818.112 682.437 825.222 662.293 836.39 646.272Z"
     id="path27" />
  <path
     d="M886.098 756.596C904.607 753.933 904.958 753.779 919.981 741.742C914.032 752.945 904.576 757.236 892.213 757.489C889.625 757.284 888.573 757.247 886.098 756.596Z"
     id="path28" />
  <path
     fill="#CDC9C7"
     d="M880.865 580.295L882.548 599.219C907.992 603.407 920.472 601.156 944.228 592.441C932.614 617.018 921.154 635.602 914.384 662.485L906.225 667.436C887.669 677.56 866.681 677.79 846.424 674.084C832.924 634.925 855.398 607.719 880.865 580.295Z"
     id="path29" />
  <path
     fill="#CDC9C7"
     d="M821.414 732.486C834.248 730.839 843.534 734.924 851.206 745.219C872.16 746.146 882.83 762.905 884.295 782.054L869.48 782.096C869.751 776.595 869.495 774.761 868.192 769.649C865.303 777.867 863.846 780.876 859.232 788.297C848.176 792.242 846.575 807.355 845.707 817.515C827.279 800.692 829.527 777.753 843.159 758.809C831.645 765.24 828.568 769.815 826.327 782.79C823.25 785.991 822.287 787.074 819.804 790.761C814.892 799.236 812.9 807.029 812.359 816.686C793.725 798.471 796.595 773.295 813.245 754.873C799.264 760.515 794.977 767.294 793.335 781.922C792.524 782.51 791.725 783.113 790.935 783.73C782.668 790.223 780.996 799.636 779.873 809.359C778.002 806.884 775.901 804.216 774.457 801.446C764.887 783.094 769.121 755.511 788.563 745.292C794.685 742.075 799.637 741.898 806.269 742.075C811.518 735.946 813.816 734.824 821.414 732.486Z"
     id="path30" />
  <path
     fill="#CDC9C7"
     d="M753.928 585.139C760.531 588.725 768.642 594.764 775.735 598.703C796.515 610.246 817.249 619.988 840.73 624.339C839.785 626.417 836.673 635.865 836.061 636.673C828.764 646.317 823.69 652.97 819.221 664.455C816.411 671.977 814.486 679.8 813.484 687.767C793.859 670.633 774.83 656.536 753.813 641.203C754.242 623.078 753.852 603.408 753.928 585.139Z"
     id="path31" />
  <path
     fill="#CDC9C7"
     d="M871.006 130.23C871.295 131.471 871.431 133.177 871.366 134.455C870.204 157.584 860.629 173.382 844.404 188.681L840.467 182.822L841.19 191.094C838.413 193.398 835.148 195.796 832.259 198.017L828.421 191.941L828.667 200.525C818.024 208.227 812.482 212.956 803.567 222.311C801.146 219.765 798.628 217.892 795.889 215.709C797.632 218.903 799.005 222.236 800.455 225.573C794.488 233.429 791.473 238.174 787.523 247.071C767.021 251.462 752.179 256.334 735.143 268.976L734.699 269.095L734.297 268.551C738.454 253.722 748.376 236.035 757.029 223.269C762.459 220.993 766.045 220.549 771.806 219.926C767.726 219.115 764.741 218.812 760.588 218.415C761.512 217.389 762.451 216.376 763.404 215.376C770.77 207.619 775.222 208.333 785.531 208.085C781.267 206.605 779.019 206.023 774.591 205.083C783.364 197.129 801.68 187.489 813.461 182.509C813.876 182.333 815.429 183.385 817.506 182.779L816.978 181.671C817.593 179.994 825.86 175.674 828.101 174.34C834.938 170.298 841.421 165.686 847.481 160.553C858.801 150.893 863.795 142.9 871.006 130.23Z"
     id="path32" />
  <path
     fill="#CDC9C7"
     d="M966.711 517.32L967.345 518.064C967.937 533.575 955.424 568.446 949.415 583.047C948.291 583.626 947.163 584.196 946.031 584.758C929.677 592.861 907.529 599.632 888.633 594.691C887.144 594.302 887.166 592.403 886.939 591.101C886.312 584.975 886.643 578.412 887.11 572.289C899.586 554.868 905.296 544.362 914.125 524.872L916.749 531.973C935.859 532.199 951.048 528.444 966.711 517.32Z"
     id="path33" />
  <path
     fill="#CDC9C7"
     d="M960.554 282.55C980.546 282.807 1000.32 286.773 1018.86 294.247C1045.37 304.88 1071.65 321.481 1083.28 348.662C1078.43 346.473 1074.48 345.02 1069.45 343.228C1051.74 337.884 1037.98 338.72 1021.25 345.853C1003.48 317.806 976.623 297.159 946.924 283.117L960.554 282.55Z"
     id="path34" />
  <path
     fill="#CDC9C7"
     d="M1027.14 354.376C1070.74 373.957 1112.49 420.922 1112.49 470.83C1099.46 455.298 1082.46 439.673 1060.54 443.495C1053.94 409.136 1043.73 384.617 1027.14 354.376Z"
     id="path35" />
  <path
     fill="#11695F"
     d="M489.444 459.439C490.177 459.405 490.91 459.385 491.644 459.381L534.378 459.248C572.323 459.185 564.435 459.574 564.592 496.574L557.96 496.071C529.998 493.989 509.635 495.432 482.338 495.961C482.338 487.068 481.323 473.186 483.528 464.897C484.238 462.229 487.015 460.528 489.444 459.439Z"
     id="path36" />
  <path
     fill="#11695F"
     d="M388.662 502.88C400.637 502.657 412.995 503.051 424.92 502.819C430.457 502.711 453.753 501.586 456.316 505.984C460.04 512.375 458.323 532.659 458.145 540.73L450.962 540.629C445.038 540.434 438.989 540.288 433.08 539.94C415.629 538.911 398.324 540.626 380.861 540.583C380.705 531.798 379.619 517.078 381.899 508.916C382.808 505.662 385.75 504.117 388.662 502.88Z"
     id="path37" />
  <path
     fill="#CDC9C7"
     d="M1062.86 454.133C1066.18 456.586 1073.31 466.137 1075.59 469.767C1094.32 499.57 1103.57 524.183 1096.63 558.879C1089.11 543.878 1087.43 540.596 1076.52 527.466C1076.51 538.247 1075.75 543.947 1073.54 554.513C1069.16 572.247 1063.22 583.756 1051.55 597.547C1053.83 581.093 1057.72 563.627 1060.57 547.089C1066.33 513.589 1066.64 487.745 1062.86 454.133Z"
     id="path38" />
  <path
     fill="#11695F"
     d="M480.455 753.378C494.045 753.598 507.731 754.891 521.339 754.967C535.422 755.046 549.367 753.811 563.466 753.5C563.301 761.859 565.387 776.935 561.466 783.182C560.802 783.726 558.796 785.348 557.894 785.411C536.142 786.954 512.99 786.062 491.087 785.961C488.239 785.948 485.209 784.845 483.222 783.796C478.579 778.128 480.339 761.722 480.455 753.378Z"
     id="path39" />
  <path
     fill="#CDC9C7"
     d="M960.89 452.94C962.078 453.976 962.955 457.463 963.444 459.04C968.561 475.535 968.825 491.79 968.521 508.851C952.518 522.253 942.25 525.652 921.366 526.78L919.993 526.302C918.311 523.309 917.541 520.088 916.545 516.782C923.594 498.804 926.658 486.319 927.185 467.129L931.657 470.271C944.166 465.761 951.689 462.677 960.89 452.94Z"
     id="path40" />
  <path
     fill="#11695F"
     d="M593.222 524.808C609.943 524.439 626.912 524.797 643.654 524.619C646.852 524.891 655.556 523.734 657.271 527.158C660.516 533.64 660.365 552.709 659.146 559.558C657.636 560.544 656.416 560.124 654.218 560.113C632.457 557.664 609.425 559.554 587.764 559.753C587.798 550.865 586.984 540.052 588.25 531.37C588.743 527.991 590.541 526.558 593.222 524.808Z"
     id="path41" />
  <path
     fill="#11695F"
     d="M380.793 753.749C383.88 753.742 387.654 753.89 390.746 754.165C413.168 756.16 434.509 754.69 456.924 753.672C456.849 761.089 458.053 777.337 455.174 782.802C453.914 783.965 452.505 785.263 450.774 785.506C443.123 786.042 436.595 786.714 428.607 786.148C420.589 785.58 388.015 788.203 382.705 783.314C378.865 779.779 380.543 760.47 380.793 753.749Z"
     id="path42" />
  <path
     fill="#11695F"
     d="M587.743 754.391C591.748 754.388 596.427 754.669 600.434 754.964C619.811 756.389 638.749 755.02 658.124 754.306C658.232 761.917 659.418 777.064 655.994 783.307C650.361 788.549 621.407 785.33 612.11 786.179C606.813 786.663 594.741 786.346 589.979 784.03C586.006 779.596 587.66 761.589 587.743 754.391Z"
     id="path43" />
  <path
     fill="#11695F"
     d="M680.272 754.426L748.206 754.36C748.222 762.407 749.966 777.812 746.043 783.842C745.426 784.313 743.527 785.566 742.88 785.566C730.533 785.56 691.3 788.634 682.289 783.657C678.352 778.883 680.123 761.788 680.272 754.426Z"
     id="path44" />
  <path
     fill="#11695F"
     d="M686.63 562.891C701.734 562.431 717.069 562.863 732.192 562.621C737.408 562.537 742.137 562.509 746.594 565.53C749.947 570.556 748.487 587.451 748.466 594.748L740.124 594.522C731.927 594.466 723.082 593.411 714.458 593.425C702.756 593.443 691.74 594.228 680.104 594.601C680.146 586.765 679.328 575.882 681.026 568.465C681.671 565.645 684.154 564.06 686.63 562.891Z"
     id="path45" />
  <path
     fill="#CDC9C7"
     d="M963.578 237.831C977.549 235.709 998.012 240.881 1011 246.11C987.465 248.989 969.041 256.973 955.957 277.595C949.632 275.881 943.521 274.838 937.055 273.909C933.411 273.375 929.917 273.197 926.249 272.951C928.168 267.015 929.642 260.945 930.659 254.79C916.178 261.467 914.516 263.09 898.614 263.234C918.58 247.875 938.688 240.017 963.578 237.831Z"
     id="path46" />
  <path
     fill="#CDC9C7"
     d="M935.539 406.926C943.02 411.413 955.654 437.415 959.358 446.422C955.915 450.904 951.821 455.679 948.206 460.084C945.73 460.763 942.818 461.842 940.348 462.682C937.666 463.843 934.858 465.22 932.194 466.463L927.104 461.451C925.888 445.813 923.706 436.34 918.345 421.627C928.235 418.857 929.799 415.392 935.539 406.926Z"
     id="path47" />
  <path
     fill="#11695F"
     d="M480.597 732.943C496.571 733.414 512.537 734.95 528.553 734.479C540.289 734.133 552.021 733.603 563.75 733.093C563.648 738.158 563.578 743.224 563.54 748.29L563.134 749.097C560.953 749.629 548.898 748.683 545.457 748.516C523.691 747.46 502.21 748.498 480.458 748.991C480.428 743.696 480.547 738.251 480.597 732.943Z"
     id="path48" />
  <path
     fill="#11695F"
     d="M380.725 733.05C393.276 733.166 406.212 734.131 418.773 734.156C431.344 734.18 444.31 733.516 456.9 733.011L457.068 749.314C450.399 749.744 434.676 748.202 426.468 748.165C411.112 748.096 395.943 748.959 380.789 748.846L380.725 733.05Z"
     id="path49" />
  <path
     fill="#11695F"
     d="M380.963 545.614C396.704 545.47 412.62 547.421 428.482 546.65C438.274 546.174 448.292 545.733 458.082 545.532L458.022 560.321C451.35 560.144 444.653 559.914 437.988 559.574C418.891 558.598 399.882 559.699 380.786 560.392C380.78 555.513 380.903 550.505 380.963 545.614Z"
     id="path50" />
  <path
     fill="#11695F"
     d="M482.156 500.335C485.754 500.312 489.566 500.383 493.15 500.678C517.148 502.65 540.621 501.043 564.601 500.332C564.592 505.076 564.616 509.652 564.315 514.396C560.559 514.285 556.513 514.011 552.751 513.75C528.979 512.097 505.662 512.895 481.856 514.27C481.847 509.697 482.038 504.924 482.156 500.335Z"
     id="path51" />
  <path
     fill="#11695F"
     d="M587.793 735.566C600.105 736.25 613.306 737.003 625.635 736.923C636.359 736.854 647.118 735.977 657.983 735.924L657.981 749.757C646.698 749.612 635.146 748.762 623.889 748.787C611.901 748.814 599.663 749.393 587.632 749.679C587.525 744.877 587.653 740.37 587.793 735.566Z"
     id="path52" />
  <path
     fill="#11695F"
     d="M587.768 564.455C597.264 564.316 608.048 565.504 617.956 565.541C632.012 565.595 645.431 564.854 659.426 564.505L659.394 577.629C655.264 577.642 650.988 577.418 646.865 577.098C627.132 575.567 607.583 576.508 587.825 577.382L587.768 564.455Z"
     id="path53" />
  <path
     fill="#11695F"
     d="M680.073 598.746C690.881 599.077 702.395 600.223 713.221 600.064C724.968 599.892 736.705 598.962 748.504 598.834L748.449 612.796C720.601 610.907 707.881 611.265 680.249 612.25L680.073 598.746Z"
     id="path54" />
  <path
     fill="#11695F"
     d="M679.951 737.18C683.713 737.138 688.327 737.384 692.078 737.754C710.965 739.619 729.444 737.485 748.288 737.154L748.208 750.52C744.863 750.561 741.073 750.335 737.729 750.081C718.479 748.619 699.505 749.754 680.258 750.165L679.951 737.18Z"
     id="path55" />
  <path
     style="fill:#08111d;fill-opacity:1;stroke-width:0.274694"
     d="m 1253.1959,186.17379 c -0.5894,-2.10545 -1.4065,-7.02274 -1.9514,-11.74316 -1.0267,-8.89497 -1.7211,-12.71645 -3.877,-21.33778 -7.3602,-29.43329 -21.3504,-57.427288 -40.1738,-80.386641 -5.9944,-7.311533 -15.3144,-16.922122 -22.4389,-23.138497 -22.6999,-19.806441 -49.2581,-34.087164 -78.0977,-41.9943152 -7.8709,-2.1580101 -14.8221,-3.3592762 -27.1101,-4.6850091 -7.4198,-0.8005112 -14.525,-1.8191155 -17.1683,-2.46124918 -0.5345,-0.12982833 41.7682,-0.24604327 95.2501,-0.26167349 l 96.2115,-0.0281181 V 93.945313 c 0,51.594377 -0.046,93.807967 -0.1011,93.807967 -0.056,0 -0.3002,-0.71077 -0.5433,-1.57949 z"
     id="path58" />
  <path
     style="fill:#08111d;fill-opacity:1;stroke-width:1.09878"
     d="M 0.5493878,96.142864 V 0.5493878 L 97.516334,0.68205418 C 150.84815,0.75502068 191.76381,1.2015426 188.44001,1.6743252 185.11622,2.1471077 177.62504,3.1045081 171.79295,3.8018817 103.66234,11.948612 39.0133,64.994083 13.722179,133.50123 8.5447038,147.52569 4.221411,165.5386 2.7119511,179.37512 c -0.7416838,6.79867 -1.5316767,12.36122 -1.75553968,12.36122 -0.22386301,0 -0.40702362,-43.01706 -0.40702362,-95.593476 z"
     id="path59" />
  <path
     style="fill:#08111d;fill-opacity:1;stroke-width:0.388476"
     d="m 0.23324482,1161.4456 c 0.0426139,-100.9008 -0.0456658,-97.6144 2.11278168,-78.6538 1.203088,10.5684 2.2781541,16.5879 4.6535125,26.0561 8.648394,34.4724 24.897777,63.2609 49.703544,88.0581 21.339564,21.3323 46.269627,36.6144 75.378697,46.2072 13.09093,4.314 23.69901,6.5731 39.23606,8.3557 20.61809,2.3655 24.89298,2.2396 -77.792282,2.2906 l -93.33132008,0.046 z"
     id="path60" />
  <path
     style="fill:#08111d;fill-opacity:1;stroke-width:0.388476"
     d="m 1067.3697,1253.6446 c 0.4597,-0.4578 7.716,-1.5064 15.1182,-2.1848 10.329,-0.9465 15.35,-1.6484 22.3374,-3.1226 66.053,-13.9358 117.2908,-60.3781 138.6154,-125.642 4.1906,-12.8253 6.1454,-21.9624 7.8539,-36.711 0.9336,-8.0597 1.878,-13.8699 2.3274,-14.3193 0.1011,-0.1011 0.1838,40.8393 0.1838,90.9785 v 91.1624 h -93.299 c -51.3144,0 -93.2261,-0.073 -93.1371,-0.1612 z"
     id="path61" />
</svg>
